<svg width="1280" height="900" viewBox="0 0 1280 900" xmlns="http://www.w3.org/2000/svg">
  <defs>
    <marker id="arrowBlue" markerWidth="10" markerHeight="10" refX="9" refY="3" orient="auto" markerUnits="strokeWidth">
      <path d="M0,0 L0,6 L9,3 z" fill="#1f5fbf"/>
    </marker>
    <marker id="arrowGreen" markerWidth="10" markerHeight="10" refX="9" refY="3" orient="auto" markerUnits="strokeWidth">
      <path d="M0,0 L0,6 L9,3 z" fill="#16805c"/>
    </marker>
    <marker id="arrowOrange" markerWidth="10" markerHeight="10" refX="9" refY="3" orient="auto" markerUnits="strokeWidth">
      <path d="M0,0 L0,6 L9,3 z" fill="#c56b12"/>
    </marker>
    <filter id="shadow" x="-15%" y="-15%" width="130%" height="130%">
      <feDropShadow dx="0" dy="3" stdDeviation="4" flood-opacity="0.16"/>
    </filter>
    <style>
      .title { font: 700 30px Arial, sans-serif; fill: #10222f; }
      .subtitle { font: 16px Arial, sans-serif; fill: #49606f; }
      .section { font: 700 20px Arial, sans-serif; fill: #10222f; }
      .boxTitle { font: 700 18px Arial, sans-serif; fill: #10222f; }
      .text { font: 15px Arial, sans-serif; fill: #263b48; }
      .small { font: 13px Arial, sans-serif; fill: #49606f; }
      .nodeA { fill: #e9f4ff; stroke: #2878b8; stroke-width: 2.2; filter: url(#shadow); }
      .nodeB { fill: #fff3e4; stroke: #c56b12; stroke-width: 2.2; filter: url(#shadow); }
      .module { fill: #fff; stroke: #a9bac5; stroke-width: 1.5; filter: url(#shadow); }
      .radar { fill: #0c1820; stroke: #16805c; stroke-width: 2.2; filter: url(#shadow); }
      .uwb { stroke: #2878b8; stroke-width: 4; stroke-dasharray: 10 7; fill: none; marker-end: url(#arrowBlue); }
      .esp { stroke: #16805c; stroke-width: 4; fill: none; marker-end: url(#arrowGreen); }
      .flow { stroke: #c56b12; stroke-width: 2.5; fill: none; marker-end: url(#arrowOrange); }
    </style>
  </defs>

  <rect width="1280" height="900" fill="#f5f8fa"/>
  <text x="55" y="55" class="title">BPMWATCH Two-Node Radar MVP</text>
  <text x="55" y="84" class="subtitle">No application master | Fixed DW1000 Anchor/Tag radio roles | UWB distance + motion bearing + ESP-NOW peer data</text>

  <text x="55" y="130" class="section">1. Equal Radar Nodes</text>

  <rect x="60" y="155" width="430" height="280" rx="18" class="nodeA"/>
  <text x="88" y="192" class="boxTitle">Node A</text>
  <text x="88" y="218" class="small">Radio role: DW1000 Anchor (not an application master)</text>
  <rect x="88" y="245" width="175" height="68" rx="10" class="module"/>
  <text x="108" y="275" class="text">BU01 / DW1000</text>
  <text x="108" y="296" class="small">distance ranging</text>
  <rect x="285" y="245" width="175" height="68" rx="10" class="module"/>
  <text x="305" y="275" class="text">GY-511</text>
  <text x="305" y="296" class="small">heading + motion</text>
  <rect x="88" y="330" width="175" height="68" rx="10" class="module"/>
  <text x="108" y="360" class="text">MAX30102</text>
  <text x="108" y="381" class="small">local BPM source</text>
  <rect x="285" y="330" width="175" height="68" rx="10" class="module"/>
  <text x="305" y="360" class="text">ZJY ST7789 240x240</text>
  <text x="305" y="381" class="small">self-centered radar</text>

  <rect x="790" y="155" width="430" height="280" rx="18" class="nodeB"/>
  <text x="818" y="192" class="boxTitle">Node B</text>
  <text x="818" y="218" class="small">Radio role: DW1000 Tag (not an application slave)</text>
  <rect x="818" y="245" width="175" height="68" rx="10" class="module"/>
  <text x="838" y="275" class="text">BU01 / DW1000</text>
  <text x="838" y="296" class="small">distance ranging</text>
  <rect x="1015" y="245" width="175" height="68" rx="10" class="module"/>
  <text x="1035" y="275" class="text">GY-511</text>
  <text x="1035" y="296" class="small">heading + motion</text>
  <rect x="818" y="330" width="175" height="68" rx="10" class="module"/>
  <text x="838" y="360" class="text">MAX30102</text>
  <text x="838" y="381" class="small">local BPM source</text>
  <rect x="1015" y="330" width="175" height="68" rx="10" class="module"/>
  <text x="1035" y="360" class="text">ZJY ST7789 240x240</text>
  <text x="1035" y="381" class="small">self-centered radar</text>

  <path d="M490 245 C595 195 685 195 790 245" class="uwb"/>
  <path d="M790 280 C685 330 595 330 490 280" class="uwb"/>
  <text x="548" y="186" class="boxTitle">UWB RANGE</text>
  <text x="535" y="211" class="small">calibrated distance only</text>

  <path d="M490 350 C595 430 685 430 790 350" class="esp"/>
  <path d="M790 385 C685 465 595 465 490 385" class="esp"/>
  <text x="565" y="420" class="boxTitle">ESP-NOW</text>
  <text x="525" y="445" class="small">Peer BPM + reciprocal bearing</text>

  <text x="55" y="495" class="section">2. Per-Node Workflow</text>

  <rect x="60" y="525" width="200" height="95" rx="14" class="module"/>
  <text x="82" y="559" class="boxTitle">Sensor Inputs</text>
  <text x="82" y="584" class="small">UWB distance</text>
  <text x="82" y="605" class="small">heading + acceleration</text>

  <path d="M260 572 L320 572" class="flow"/>

  <rect x="320" y="525" width="220" height="95" rx="14" class="module"/>
  <text x="342" y="559" class="boxTitle">Filter + Motion</text>
  <text x="342" y="584" class="small">distance EMA</text>
  <text x="342" y="605" class="small">movement bearing heuristic</text>

  <path d="M540 572 L600 572" class="flow"/>

  <rect x="600" y="525" width="220" height="95" rx="14" class="module"/>
  <text x="622" y="559" class="boxTitle">Radar State</text>
  <text x="622" y="584" class="small">angle + distance</text>
  <text x="622" y="605" class="small">auto-range + link state</text>

  <path d="M820 572 L880 572" class="flow"/>

  <rect x="880" y="525" width="340" height="95" rx="14" class="module"/>
  <text x="902" y="559" class="boxTitle">North-Up Radar Render</text>
  <text x="902" y="584" class="small">self at center, Peer dot around it</text>
  <text x="902" y="605" class="small">Peer BPM, distance, UWB status, range scale</text>

  <text x="55" y="680" class="section">3. Display Behavior</text>

  <rect x="60" y="710" width="540" height="145" rx="16" class="radar"/>
  <circle cx="175" cy="782" r="55" fill="none" stroke="#49d99a" stroke-width="2"/>
  <circle cx="175" cy="782" r="28" fill="none" stroke="#315260" stroke-width="1.5"/>
  <line x1="120" y1="782" x2="230" y2="782" stroke="#315260"/>
  <line x1="175" y1="727" x2="175" y2="837" stroke="#315260"/>
  <circle cx="175" cy="782" r="5" fill="#49d99a"/>
  <circle cx="207" cy="757" r="7" fill="#ff9f43"/>
  <text x="165" y="726" fill="#fff" font-family="Arial" font-size="12">N</text>
  <text x="255" y="752" fill="#fff" font-family="Arial" font-size="16">NODE A  UWB OK  R:20m</text>
  <text x="255" y="785" fill="#fff" font-family="Arial" font-size="16">PEER BPM: 82</text>
  <text x="255" y="818" fill="#fff" font-family="Arial" font-size="16">D: 5.2m</text>

  <rect x="680" y="710" width="540" height="145" rx="16" class="radar"/>
  <circle cx="795" cy="782" r="55" fill="none" stroke="#49d99a" stroke-width="2"/>
  <circle cx="795" cy="782" r="28" fill="none" stroke="#315260" stroke-width="1.5"/>
  <line x1="740" y1="782" x2="850" y2="782" stroke="#315260"/>
  <line x1="795" y1="727" x2="795" y2="837" stroke="#315260"/>
  <circle cx="795" cy="782" r="5" fill="#49d99a"/>
  <circle cx="763" cy="807" r="7" fill="none" stroke="#8d9aa3" stroke-width="3"/>
  <text x="785" y="726" fill="#fff" font-family="Arial" font-size="12">N</text>
  <text x="875" y="752" fill="#fff" font-family="Arial" font-size="16">NODE B  UWB LOST  R:20m</text>
  <text x="875" y="785" fill="#fff" font-family="Arial" font-size="16">PEER BPM: --</text>
  <text x="875" y="818" fill="#8d9aa3" font-family="Arial" font-size="16">LAST D: 5.2m</text>

  <text x="55" y="885" class="small">The gray outline dot keeps the last known position after UWB loss. Production firmware has no AP, webserver, or browser dashboard.</text>
</svg>
